# xmcd
#
# Track frame offsets:
# 150
# 13090
# 33032
# 46399
# 57940
# 75874
# 92009
# 105119
# 120354
# 144134
# 159209
# 170909
#
# Disc length: 2408 seconds
#
#
# Revision: 0
# Processed by: cddbd v1.5.2PL0 Copyright (c) Steve Scherf et al.
# Submitted via: Nero 7, 11, 10, 0 
#
DISCID=7b09660c
DTITLE=Coldsweat - Nocturnal
DYEAR=2002
DGENRE=Blues
TTITLE0=Tradesman
TTITLE1=3.00 A.M.
TTITLE2=Gonna Love You
TTITLE3=See See Baby
TTITLE4=Every Time You Go
TTITLE5=Dance With Me
TTITLE6=Some Kind Of Lady
TTITLE7=Cadillac
TTITLE8=How Many More Years
TTITLE9=Can't Get You Off My Mind
TTITLE10=Me And My Guitar
TTITLE11=Imperial
EXTD=
EXTT0=Tradesman
EXTT1=3.00 A.M.
EXTT2=Gonna Love You
EXTT3=See See Baby
EXTT4=Every Time You Go
EXTT5=Dance With Me
EXTT6=Some Kind Of Lady
EXTT7=Cadillac
EXTT8=How Many More Years
EXTT9=Can't Get You Off My Mind
EXTT10=Me And My Guitar
EXTT11=Imperial
PLAYORDER=
